<svg width="100" height="100" viewBox="0 0 100 100" fill="none" xmlns="http://www.w3.org/2000/svg">
<g clip-path="url(#clip0)">
<path d="M4.45618 34.0465C2.96019 35.6812 2.48694 38.0073 3.22529 40.0965L10.6894 61.217C11.3917 63.2041 13.085 64.6771 15.1503 65.0973L38.1351 69.7736C40.2004 70.1938 42.3347 69.4995 43.7576 67.9448L58.8807 51.4198C60.3767 49.7851 60.85 47.459 60.1116 45.3698L52.6475 24.2493C51.9452 22.2622 50.2519 20.7892 48.1866 20.369L25.2018 15.6927C23.1365 15.2725 21.0022 15.9668 19.5793 17.5215L4.45618 34.0465Z" fill="#3B4043"/>
<path d="M89.8087 85.383L57.9494 94.3259C57.1987 94.5366 56.5063 93.8453 56.7159 93.0943L65.2115 62.6582C65.4178 61.919 66.3455 61.6781 66.8854 62.2235L89.8087 85.383Z" fill="#3B4043"/>
<rect x="59.8779" y="6" width="36" height="4" rx="2" transform="rotate(28 59.8779 6)" fill="#3B4043"/>
</g>
<defs>
<clipPath id="clip0">
<rect width="100" height="100" fill="white"/>
</clipPath>
</defs>
</svg>
