<svg enable-background="new 0 0 24 24" viewBox="0 0 24 24" xmlns="http://www.w3.org/2000/svg">
    <path fill="#000"
          d="m20 24h4v-4h-4zm-20 0h4v-4h-4zm0-24v18h24v-18zm3 16c-.552 0-1-.448-1-1s.448-1 1-1 1 .448 1 1-.448 1-1 1zm0-12c-.552 0-1-.448-1-1s.448-1 1-1 1 .448 1 1-.448 1-1 1zm6 4c1.654 0 3 1.346 3 3s-1.346 3-3 3h-2c-.552 0-1-.447-1-1s.448-1 1-1h2c.551 0 1-.448 1-1s-.449-1-1-1h-3v-6h5c.552 0 1 .447 1 1s-.448 1-1 1h-3v2zm9 5c0 .553-.448 1-1 1s-1-.447-1-1v-6.382l-.553.276c-.496.246-1.095.047-1.342-.447s-.047-1.095.447-1.342l2-1c.309-.154.679-.139.973.044s.475.504.475.851zm3 3c-.552 0-1-.448-1-1s.448-1 1-1 1 .448 1 1-.448 1-1 1zm0-12c-.552 0-1-.448-1-1s.448-1 1-1 1 .448 1 1-.448 1-1 1z"/>
</svg>