<svg xmlns="http://www.w3.org/2000/svg" width="24" height="24" fill="none" viewBox="0 0 24 24">
    <path fill="#000"
          d="M21 4h-3V3c0-1.654-1.346-3-3-3H9C7.346 0 6 1.346 6 3v1H3a1 1 0 0 0 0 2h18a1 1 0 0 0 0-2zm-5 0H8V3c0-.551.449-1 1-1h6c.551 0 1 .449 1 1v1zM3.883 22.125A2 2 0 0 0 5.879 24h12.242a2 2 0 0 0 1.996-1.875L21 8H3l.883 14.125zm4.581-8.246a1.003 1.003 0 0 1 0-1.414 1.003 1.003 0 0 1 1.414 0L12 14.586l2.121-2.121a1.003 1.003 0 0 1 1.414 0 1.003 1.003 0 0 1 0 1.414L13.414 16l2.121 2.121a1.003 1.003 0 0 1 0 1.414 1.003 1.003 0 0 1-1.414 0L12 17.414l-2.121 2.122a1.003 1.003 0 0 1-1.414 0 1.003 1.003 0 0 1 0-1.414L10.586 16l-2.122-2.121z"/>
</svg>
