<svg width="24" height="24" viewBox="0 0 24 24" xmlns="http://www.w3.org/2000/svg">
    <path fill-rule="evenodd" clip-rule="evenodd"
          d="M5 1H19C21.209 1 23 2.79099 23 5V19C23 21.209 21.209 23 19 23H5C2.79099 23 1 21.209 1 19V5C1 2.79099 2.79099 1 5 1ZM15.7841 10.6293H14.0156C13.9474 9.94318 13.4062 9.5426 12.5241 9.5426C11.6207 9.5426 11.1222 9.95596 11.1222 10.5185C11.1094 11.1449 11.7443 11.4261 12.5028 11.6009L13.2869 11.7884C14.804 12.1293 15.8991 12.9006 15.9034 14.3537C15.8991 15.9517 14.6463 16.9702 12.5156 16.9702C10.3977 16.9702 9.04688 15.9943 9 14.1065H10.7855C10.8452 14.9801 11.5355 15.4233 12.4943 15.4233C13.4318 15.4233 14.0369 14.9886 14.0412 14.3494C14.0369 13.7614 13.5085 13.4886 12.5582 13.2585L11.6079 13.0199C10.1335 12.6662 9.22586 11.929 9.2301 10.6421C9.22159 9.05682 10.6236 8 12.5369 8C14.4801 8 15.7585 9.07385 15.7841 10.6293Z"
          fill="#000"/>
</svg>
