<svg width="24" height="24" viewBox="0 0 24 24" xmlns="http://www.w3.org/2000/svg">
    <path fill-rule="evenodd" clip-rule="evenodd"
          d="M5 1H19C21.209 1 23 2.79099 23 5V19C23 21.209 21.209 23 19 23H5C2.79099 23 1 21.209 1 19V5C1 2.79099 2.79099 1 5 1ZM16.3636 12.3551C16.3636 15.0824 14.7528 16.7273 12.0938 16.7273H9V8H12.1193C14.7528 8 16.3636 9.63635 16.3636 12.3551ZM10.8452 9.58096V15.1463H12.0171C13.6577 15.1463 14.5227 14.3026 14.5227 12.3551C14.5227 10.4162 13.6577 9.58096 12.0213 9.58096H10.8452Z"
          fill="#000"/>
</svg>
