<svg width="24" height="24" viewBox="0 0 24 24" xmlns="http://www.w3.org/2000/svg">
    <path d="M0.611006 20.586C-0.203994 21.367 -0.203994 22.633 0.611006 23.414C1.42601 24.195 2.74801 24.195 3.56301 23.414L8.79701 18.4L5.84501 15.572L0.611006 20.586ZM23.981 4.999C23.899 2.911 23.266 1.117 22.101 0L7.29001 14.188L14.507 21.101L18 17.755V20.998C18 21.55 18.448 21.998 19 21.998C19.552 21.998 20 21.55 20 20.998V15.699C20.786 14.774 21.45 13.794 22 12.789V16.998C22 17.55 22.448 17.998 23 17.998C23.552 17.998 24 17.55 24 16.998V4.999H23.981Z"
          fill="black"/>
</svg>
