<svg xmlns="http://www.w3.org/2000/svg" width="24" height="24" viewBox="0 0 24 24">
    <path fill="#000"
          d="M17 22H7a1 1 0 0 0 0 2h10a1 1 0 0 0 0-2zm4-22H3C1.346 0 0 1.346 0 3v6c0 2.735 2.21 4.958 4.937 4.994.87 1.65 2.291 2.994 4.063 3.714V20h6v-2.292c1.773-.72 3.193-2.064 4.063-3.714C21.79 13.958 24 11.735 24 9V3c0-1.654-1.346-3-3-3zM2 9V3c0-.551.449-1 1-1h1v8.294c0 .538.074 1.062.18 1.578A2.996 2.996 0 0 1 2 9zm13.546-1.666l-1.637 1.288.685 2.146a.537.537 0 0 1-.838.588L11.999 10l-1.767 1.356a.537.537 0 0 1-.837-.587l.686-2.148-1.628-1.288a.535.535 0 0 1 .333-.955h2.023l.677-2.043a.534.534 0 0 1 .508-.367h.001c.23 0 .434.147.508.365l.686 2.046h2.026a.536.536 0 0 1 .331.955zM22 9a2.996 2.996 0 0 1-2.18 2.872c.106-.515.18-1.039.18-1.578V2h1c.551 0 1 .449 1 1v6z"/>
</svg>
