<svg width="24" height="24" viewBox="0 0 24 24" xmlns="http://www.w3.org/2000/svg">
    <path d="M8.53797 10.7875L6.11361 8.36314C5.034 7.28354 5.80298 5.43875 7.322 5.43496H17.0195C17.9665 5.43496 18.7355 6.20394 18.7355 7.15096L18.7355 16.8484C18.7393 18.375 16.8869 19.1364 15.8111 18.0606L13.3867 15.6362L9.44711 19.5758C8.94708 20.0759 8.12886 20.0759 7.62883 19.5758L4.59838 16.5454C4.09835 16.0453 4.09835 15.2271 4.59838 14.7271L8.53797 10.7875Z"
          fill="#85BF25"/>
    <path fill-rule="evenodd" clip-rule="evenodd"
          d="M21.4286 24H2.57143C1.15179 24 0 22.8482 0 21.4286V2.57143C0 1.15179 1.15179 0 2.57143 0H21.4286C22.8482 0 24 1.15179 24 2.57143V21.4286C24 22.8482 22.8482 24 21.4286 24ZM4 3C3.52857 3 3 3.52857 3 4V20C3 20.4714 3.52857 21 4 21H20C20.4714 21 21 20.4714 21 20V4C21 3.52857 20.4714 3 20 3H4Z"
          fill="#333333"/>
</svg>
