<svg width="886" height="107" viewBox="0 0 886 107" fill="none" xmlns="http://www.w3.org/2000/svg">
<path d="M0 15.3957H24.5526V83.9834H36.4056V15.3957H60.9966V5.15756H0V15.3957Z" fill="black"/>
<path d="M85.0585 48.8813C85.0585 39.4514 91.0235 34.0629 99.2205 34.0629C107.148 34.0629 111.882 39.105 111.882 47.7651V83.9834H123.388V46.3795C123.388 31.6381 115.307 24.0942 103.146 24.0942C93.9483 24.0942 84.9046 24.0942 84.9046 24.0942V5.15756H73.5519V83.9834H85.0585V48.8813Z" fill="black"/>
<path d="M164.219 85.1766C177.111 85.1766 186.232 78.8259 188.849 69.2036L179.604 67.5372C178.651 67.3656 177.728 67.91 177.282 68.769C174.908 73.3411 170.251 75.6698 164.335 75.6698C154.483 75.6698 147.864 69.2806 147.556 57.8878H189.58V53.8079C189.58 32.4464 176.804 24.0942 163.411 24.0942C146.94 24.0942 136.088 36.6417 136.088 54.8086C136.088 73.168 146.786 85.1766 164.219 85.1766ZM149.708 49.2662C148.56 49.2662 147.637 48.2982 147.831 47.1669C149.107 39.6981 154.927 33.6011 163.488 33.6011C172.416 33.6011 178.266 40.2212 178.304 49.2662H149.708Z" fill="black"/>
<path d="M217.548 5.15756H201.154V83.9834H217.548V5.15756Z" fill="black"/>
<path d="M257.619 85.1381C272.243 85.1381 282.095 78.0176 284.404 67.0482L270.734 66.146C269.849 66.0876 269.05 66.631 268.627 67.4111C266.672 71.0236 262.772 72.8986 257.889 72.8986C249.692 72.8986 244.496 67.4716 244.496 58.6576V58.6191H284.75V54.1158C284.75 34.0245 272.59 24.0942 256.965 24.0942C239.571 24.0942 228.295 36.4493 228.295 54.6932C228.295 73.4374 239.417 85.1381 257.619 85.1381ZM246.602 48.4579C245.457 48.4579 244.531 47.4919 244.763 46.3707C245.95 40.6428 250.73 36.3338 257.235 36.3338C264.354 36.3338 269.28 41.4144 269.318 48.4579H246.602Z" fill="black"/>
<path d="M322.079 107C338.974 107 350.981 99.3021 350.981 84.5608V24.1455C350.981 24.1455 327.082 24.0942 317.192 24.0942C304.223 24.0942 293.255 34.1784 293.255 54.3083C293.255 73.9763 303.636 82.8544 316.952 82.8544C326.38 82.8544 334.779 82.8544 334.779 82.8544V84.3298C334.779 92.0662 329.584 95.2223 322.464 95.2223C316.256 95.2223 312.683 92.898 310.943 90.2197C310.451 89.4628 309.606 88.9551 308.711 89.0755L295.064 90.9115C297.027 99.841 306.147 107 322.079 107ZM322.426 70.8201C314.383 70.8201 309.996 64.4309 309.996 54.2313C309.996 44.1856 314.306 37.1421 322.426 37.1421C330.392 37.1421 334.856 43.8777 334.856 54.2313C334.856 64.6619 330.315 70.8201 322.426 70.8201Z" fill="black"/>
<path d="M390.965 85.1381C405.589 85.1381 415.441 78.0176 417.75 67.0482L404.08 66.146C403.195 66.0876 402.396 66.631 401.973 67.4111C400.018 71.0236 396.118 72.8986 391.235 72.8986C383.038 72.8986 377.842 67.4716 377.842 58.6576V58.6191H418.096V54.1158C418.096 34.0245 405.935 24.0942 390.311 24.0942C372.916 24.0942 361.641 36.4493 361.641 54.6932C361.641 73.4374 372.763 85.1381 390.965 85.1381ZM379.948 48.4579C378.803 48.4579 377.877 47.4919 378.109 46.3707C379.296 40.6427 384.076 36.3338 390.58 36.3338C397.7 36.3338 402.626 41.4144 402.664 48.4579H379.948Z" fill="black"/>
<path d="M445.189 49.805C445.227 42.1842 449.768 37.7194 456.388 37.7194C462.968 37.7194 466.932 42.0302 466.894 49.2662V83.9834H483.288V46.341C483.288 32.5619 475.206 24.0942 462.891 24.0942C454.117 24.0942 428.795 24.0942 428.795 24.0942V83.9834H445.189V49.805Z" fill="black"/>
<path d="M517.888 83.9834C527.432 83.9834 551.625 83.9834 551.625 83.9834V5.15756H535.269V24.0942C535.269 24.0942 527.842 24.0942 517.952 24.0942C504.983 24.0942 494.015 34.1784 494.015 54.5007C494.015 74.2842 504.418 83.9834 517.888 83.9834ZM523.186 71.8978C515.143 71.8978 510.755 64.7388 510.755 54.4237C510.755 44.1856 515.066 37.1421 523.186 37.1421C531.152 37.1421 535.616 43.8777 535.616 54.4237C535.616 64.9698 531.075 71.8978 523.186 71.8978Z" fill="black"/>
<path d="M591.812 85.1381C609.745 85.1381 620.905 72.8601 620.905 54.6547C620.905 36.3338 609.745 24.0942 591.812 24.0942C573.878 24.0942 562.718 36.3338 562.718 54.6547C562.718 72.8601 573.878 85.1381 591.812 85.1381ZM591.889 72.4367C583.615 72.4367 579.381 64.8543 579.381 54.5392C579.381 44.2241 583.615 36.6032 591.889 36.6032C600.009 36.6032 604.242 44.2241 604.242 54.5392C604.242 64.8543 600.009 72.4367 591.889 72.4367Z" fill="black"/>
<path d="M663.353 24.864H653.615C652.511 24.864 651.615 23.9686 651.615 22.864V20.8996C651.615 16.8968 653.232 14.5489 658.042 14.5489C660.005 14.5489 662.006 14.9723 663.314 15.3957L666.201 3.07914C664.161 2.46331 659.658 1.46259 654.617 1.46259C643.495 1.46259 635.221 7.73633 635.221 20.5917V24.864H626.87V37.1806H633.221C634.326 37.1806 635.221 38.076 635.221 39.1806V83.9834H651.615V37.1806H663.353V24.864Z" fill="black"/>
<path d="M689.474 83.9834C697.709 83.9834 724.782 83.9834 724.782 83.9834V43.8007C724.782 31.2917 713.661 24.0942 698.613 24.0942C682.72 24.0942 673.714 32.1 672.214 42.877L687.894 43.4334C688.864 43.4677 689.689 42.7854 690.086 41.9007C691.352 39.0815 694.238 37.4115 698.46 37.4115C703.078 37.4115 706.002 39.6439 706.002 43.6083V43.8007C706.002 47.4187 702.077 48.1885 691.994 49.0737C680.026 50.0745 670.02 54.5007 670.02 67.587C670.02 79.2878 678.159 83.9834 689.474 83.9834ZM695.265 72.6676C690.917 72.6676 687.838 70.5892 687.838 66.6633C687.838 62.8529 690.84 60.5435 696.189 59.7352C699.691 59.2349 706.118 59.7352 706.118 59.7352V62.9683C706.002 72.6676 706.002 72.6676 695.265 72.6676Z" fill="black"/>
<path d="M736.289 24.864V85.8309C736.289 89.7568 734.557 91.6428 729.4 91.6428C728.669 91.6428 728.015 91.6043 727.091 91.5273V105.768C728.554 105.922 729.554 105.884 730.555 105.922C745.641 106.384 755.107 100.842 755.107 86.2158V24.864H736.289ZM745.679 17.9745C751.028 17.9745 755.338 13.9331 755.338 8.96799C755.338 4.00288 751.028 0 745.679 0C740.368 0 736.02 4.00288 736.02 8.96799C736.02 13.9331 740.368 17.9745 745.679 17.9745Z" fill="black"/>
<path d="M783.864 83.9834C792.1 83.9834 819.077 83.9834 819.077 83.9834V43.8007C819.077 31.2917 807.955 24.0942 792.908 24.0942C777.014 24.0942 768.009 32.1 766.508 42.877L782.189 43.4334C783.158 43.4677 783.983 42.7854 784.381 41.9007C785.647 39.0815 788.533 37.4115 792.754 37.4115C797.372 37.4115 800.297 39.6439 800.297 43.6083V43.8007C800.297 47.4187 796.372 48.1885 786.289 49.0737C774.32 50.0745 764.315 54.5007 764.315 67.587C764.315 79.2878 772.55 83.9834 783.864 83.9834ZM789.56 72.6676C785.211 72.6676 782.133 70.5892 782.133 66.6633C782.133 62.8529 785.134 60.5435 790.484 59.7352C793.986 59.2349 800.412 59.7352 800.412 59.7352V62.9683C800.297 72.6676 800.412 72.6676 789.56 72.6676Z" fill="black"/>
<path d="M846.593 24.864H827.505L843.275 53.4323C843.614 54.0474 843.606 54.7955 843.253 55.4031L826.658 83.9834H845.746L856.329 64.354L867.182 83.9834H886L869.445 55.4082C869.092 54.7978 869.086 54.0463 869.43 53.4304L885.384 24.864H866.412L856.329 44.3396L846.593 24.864Z" fill="black"/>
</svg>
