<svg width="755" height="96" viewBox="0 0 755 96" xmlns="http://www.w3.org/2000/svg">
    <path d="M27.1364 22.6364H15.9545V10.0909H7.90909V20.6364C7.90909 21.7409 7.01366 22.6364 5.90909 22.6364H0V29.4545H7.90909V62.1818C7.90909 71.3182 15.2727 75.6818 22.0909 75.6818C25.0909 75.6818 27 75.1364 28.0909 74.7273L26.4545 67.5C25.7727 67.6364 24.6818 67.9091 22.9091 67.9091C19.3636 67.9091 15.9545 66.8182 15.9545 60V31.4545C15.9545 30.35 16.85 29.4545 17.9545 29.4545H27.1364V22.6364Z"
          fill="#3B4043"/>
    <path d="M48.4091 43.5C48.4091 34.3636 54.2386 29.1818 62.1818 29.1818C69.75 29.1818 74.3182 33.9545 74.3182 42.2727V75H82.3636V41.7273C82.3636 28.2614 75.2045 21.9545 64.5 21.9545C56.25 21.9545 48.4091 21.9545 48.4091 21.9545V5.18182H40.3636V75H48.4091V43.5Z"
          fill="#3B4043"/>
    <path d="M119.037 76.0909C129.673 76.0909 137.446 70.7727 139.901 62.8636L132.128 60.6818C130.082 66.1364 125.344 68.8636 119.037 68.8636C109.594 68.8636 103.082 62.7614 102.707 51.5455H140.719V48.1364C140.719 28.6364 129.128 21.9545 118.219 21.9545C104.037 21.9545 94.6278 33.1364 94.6278 49.2273C94.6278 65.3182 103.901 76.0909 119.037 76.0909ZM104.846 44.5909C103.689 44.5909 102.763 43.608 102.97 42.4696C104.291 35.224 109.822 29.1818 118.219 29.1818C126.276 29.1818 131.66 34.7609 132.439 42.5925C132.549 43.6916 131.641 44.5909 130.537 44.5909H104.846Z"
          fill="#3B4043"/>
    <path d="M164.276 5.18182H151.935V75H164.276V5.18182Z" fill="#3B4043"/>
    <path d="M200.148 76.0227C212.352 76.0227 220.739 70.0568 222.92 60.9545L212.944 59.8329C212.035 59.7307 211.19 60.2711 210.746 61.0709C208.794 64.582 205.04 66.4091 200.318 66.4091C192.341 66.4091 187.057 61.1591 186.955 52.1932H223.432V48.4091C223.432 30.0341 212.386 21.9545 199.5 21.9545C184.5 21.9545 174.716 32.9659 174.716 49.125C174.716 65.5568 184.364 76.0227 200.148 76.0227ZM189.104 43.875C187.955 43.875 187.029 42.9035 187.262 41.7787C188.446 36.0573 193.092 31.5682 199.67 31.5682C206.075 31.5682 210.588 35.7948 211.452 41.8623C211.609 42.9632 210.695 43.875 209.583 43.875H189.104Z"
          fill="#3B4043"/>
    <path d="M256.645 95.5227C270.793 95.5227 281.224 89.0455 281.224 75.8523V21.9545C281.224 21.9545 262.577 21.9545 253.338 21.9545C241.236 21.9545 231.724 31.4318 231.724 48.6477C231.724 65.7273 240.932 74 253 74C261.966 74 268.986 74 268.986 74V75.5114C268.986 83.0114 263.872 86.1818 256.849 86.1818C250.544 86.1818 247.232 83.6541 245.457 81.139C244.928 80.389 244.019 79.9585 243.127 80.1747L233.531 82.5C235.781 89.625 243.315 95.5227 256.645 95.5227ZM256.747 64.5682C248.599 64.5682 244.304 58.2273 244.304 48.5795C244.304 39.0682 248.531 32.0795 256.747 32.0795C264.69 32.0795 269.054 38.6591 269.054 48.5795C269.054 58.5682 264.622 64.5682 256.747 64.5682Z"
          fill="#3B4043"/>
    <path d="M317.054 76.0227C329.259 76.0227 337.645 70.0568 339.827 60.9545L329.85 59.8329C328.941 59.7307 328.097 60.2711 327.652 61.0709C325.7 64.582 321.946 66.4091 317.224 66.4091C309.247 66.4091 303.963 61.1591 303.861 52.1932H340.338V48.4091C340.338 30.0341 329.293 21.9545 316.406 21.9545C301.406 21.9545 291.622 32.9659 291.622 49.125C291.622 65.5568 301.27 76.0227 317.054 76.0227ZM306.01 43.875C304.862 43.875 303.935 42.9035 304.168 41.7787C305.352 36.0573 309.998 31.5682 316.577 31.5682C322.981 31.5682 327.494 35.7948 328.358 41.8623C328.515 42.9632 327.601 43.875 326.489 43.875H306.01Z"
          fill="#3B4043"/>
    <path d="M363.119 44.3182C363.119 36.75 367.687 32.3864 374.199 32.3864C380.574 32.3864 384.392 36.5795 384.392 43.5682V75H396.733V41.6591C396.767 29.1136 389.608 21.9545 378.801 21.9545C370.96 21.9545 350.778 22 350.778 22V75H363.119V44.3182Z"
          fill="#3B4043"/>
    <path d="M429 75C438 75 456.597 75 456.597 75V5.18182H444.222L444 22C444 22 437.983 21.9545 428.744 21.9545C416.642 21.9545 407.131 31.4318 407.131 48.8864C407.131 66.1364 416.659 75 429 75ZM432.153 65.7955C424.006 65.7955 419.71 58.6364 419.71 48.8182C419.71 39.0682 423.938 32.0795 432.153 32.0795C440.097 32.0795 444.46 38.6591 444.46 48.8182C444.46 58.9773 440.028 65.7955 432.153 65.7955Z"
          fill="#3B4043"/>
    <path d="M492.315 76.0568C507.077 76.0568 516.724 65.25 516.724 49.0568C516.724 32.7614 507.077 21.9545 492.315 21.9545C477.554 21.9545 467.906 32.7614 467.906 49.0568C467.906 65.25 477.554 76.0568 492.315 76.0568ZM492.349 67.5C482.702 67.5 478.202 59.0795 478.202 49.0227C478.202 39 482.702 30.4773 492.349 30.4773C501.929 30.4773 506.429 39 506.429 49.0227C506.429 59.0795 501.929 67.5 492.349 67.5Z"
          fill="#3B4043"/>
    <path d="M553.023 22.6364H541.739V17.9318C541.739 13.2955 543.648 10.7727 548.625 10.7727C549.618 10.7727 550.476 10.8781 551.206 11.0218C552.312 11.2396 553.452 10.6614 553.766 9.57819L555.58 3.30682C554.148 2.76136 551.182 1.90909 547.057 1.90909C538.773 1.90909 531.511 6.75 531.511 16.5682V20.6364C531.511 21.7409 530.616 22.6364 529.511 22.6364H523.432V30.8182H531.511V75H541.739V32.8182C541.739 31.7136 542.634 30.8182 543.739 30.8182H553.023V22.6364Z"
          fill="#3B4043"/>
    <path d="M576 75C582.818 75 591.597 75 591.597 75H609.188V39.1364C609.188 29.4545 600.017 21.9545 585.051 21.9545C569.403 21.9545 561.699 30.1364 561.051 39.6818H576.624C577.624 39.6818 578.425 38.9178 578.833 38.0054C579.772 35.9112 581.885 34.9091 584.778 34.9091C588.051 34.9091 590.369 36.4091 590.369 39.1364V39.2727C590.369 42.3068 587.028 43.2614 578.233 43.9091C567.426 44.6932 559.006 49.0568 559.006 60.5455C559.006 70.9773 565.977 75 576 75ZM582.188 63.9545C578.983 63.9545 576.733 62.3864 576.733 59.4545C576.733 56.7614 578.642 54.6818 583.006 54C590.5 53.5 590.506 54 590.506 54V56.4545C590.369 63.9545 590.369 63.9545 582.188 63.9545Z"
          fill="#3B4043"/>
    <path d="M618.179 22.6364V76.0909C618.179 79.125 616.815 80.4545 612.315 80.4545C611.634 80.4545 611.02 80.4205 610.134 80.3182V94.2273C611.634 94.3636 612.588 94.3295 613.543 94.3636C627.759 94.9091 636.997 90.2727 636.997 76.5V22.6364H618.179ZM627.588 17.1818C632.702 17.1818 636.861 13.3295 636.861 8.59091C636.861 3.85227 632.702 0 627.588 0C622.474 0 618.315 3.85227 618.315 8.59091C618.315 13.3295 622.474 17.1818 627.588 17.1818Z"
          fill="#3B4043"/>
    <path d="M661 75C667.818 75 694.312 75 694.312 75V39.1364C694.312 29.4545 685.142 21.9545 670.176 21.9545C654.528 21.9545 646.824 30.1364 646.176 39.6818H661.749C662.749 39.6818 663.55 38.9178 663.958 38.0054C664.897 35.9112 667.01 34.9091 669.903 34.9091C673.176 34.9091 675.494 36.4091 675.494 39.1364V39.2727C675.494 42.3068 672.153 43.2614 663.358 43.9091C652.551 44.6932 644.131 49.0568 644.131 60.5455C644.131 70.9773 650.977 75 661 75ZM667.312 63.9545C664.108 63.9545 661.858 62.3864 661.858 59.4545C661.858 56.7614 663.767 54.6818 668.131 54C671.131 53.5227 675.494 53.5 675.494 53.5L675.631 56.4545C675.494 63.9545 675.494 63.9545 667.312 63.9545Z"
          fill="#3B4043"/>
    <path d="M719.531 22.6364H700.713L714.107 47.8479C714.428 48.4522 714.418 49.1786 714.08 49.7736L699.759 75H718.577L727.168 58.3636L736.031 75H754.577L740.388 49.7759C740.053 49.1795 740.045 48.4529 740.369 47.8499L753.895 22.6364H735.213L727.168 38.8636L719.531 22.6364Z"
          fill="#3B4043"/>
</svg>
