<svg xmlns="http://www.w3.org/2000/svg" width="24" height="24" fill="none" viewBox="0 0 24 24">
    <path fill="#000" d="M13.5 10H11v1h2.5a.5.5 0 0 0 0-1zm0 3H11v1h2.5a.5.5 0 0 0 0-1zM12 4a8 8 0 1 0 0 16 8 8 0 0 0 0-16zm4 9.5c0 1.378-1.122 2.5-2.5 2.5H13v.5a1 1 0 0 1-2 0V16H9V8h2v-.5a1 1 0 0 1 2 0V8h.5c1.378 0 2.5 1.122 2.5 2.5 0 .565-.195 1.081-.513 1.5.318.419.513.935.513 1.5zM12 0C5.373 0 0 5.373 0 12s5.373 12 12 12 12-5.373 12-12S18.627 0 12 0zm0 22C6.486 22 2 17.514 2 12S6.486 2 12 2s10 4.486 10 10-4.486 10-10 10z"/>
</svg>
