<svg width="24" height="22" viewBox="0 0 24 22" fill="none" xmlns="http://www.w3.org/2000/svg">
<path d="M14 6H2C0.896 6 0 6.896 0 8V10H16V8C16 6.896 15.104 6 14 6ZM14 12H2C0.896 12 0 12.896 0 14V16H16V14C16 12.896 15.104 12 14 12ZM14 18H2C0.896 18 0 18.896 0 20V22H16V20C16 18.896 15.104 18 14 18ZM22 0H10C8.896 0 8 0.896 8 2V4H24V2C24 0.896 23.104 0 22 0ZM22 6H17.444C17.788 6.591 18 7.268 18 8V10H24V8C24 6.896 23.104 6 22 6ZM22 18H17.444C17.788 18.591 18 19.268 18 20V22H24V20C24 18.896 23.104 18 22 18ZM22 12H17.444C17.788 12.591 18 13.268 18 14V16H24V14C24 12.896 23.104 12 22 12Z" fill="#5F6368"/>
</svg>
