<svg width="24" height="24" viewBox="0 0 24 24" xmlns="http://www.w3.org/2000/svg">
    <path fill-rule="evenodd" clip-rule="evenodd"
          d="M4 12C4 7.582 7.582 4 12 4C16.418 4 20 7.582 20 12C20 16.418 16.418 20 12 20C7.582 20 4 16.418 4 12ZM15 17H13.6522V8.07422H12.3043V13.2891H11.6739C9.30435 13.2891 8 11.9609 8 10.1445C8 8.34766 9.30435 7 11.6739 7H15V17Z"
          fill="#000"/>
    <path fill-rule="evenodd" clip-rule="evenodd"
          d="M0 12C0 5.373 5.373 0 12 0C18.627 0 24 5.373 24 12C24 18.627 18.627 24 12 24C5.373 24 0 18.627 0 12ZM2 12C2 17.514 6.486 22 12 22C17.514 22 22 17.514 22 12C22 6.486 17.514 2 12 2C6.486 2 2 6.486 2 12Z"
          fill="#000"/>
</svg>
