<svg enable-background="new 0 0 24 24" viewBox="0 0 24 24" xmlns="http://www.w3.org/2000/svg">
    <path fill="#000"
          d="m21 4h-3v-1c0-1.654-1.346-3-3-3h-6c-1.654 0-3 1.346-3 3v1h-3c-.552 0-1 .448-1 1s.448 1 1 1h18c.552 0 1-.448 1-1s-.448-1-1-1zm-5 0h-8v-1c0-.551.449-1 1-1h6c.551 0 1 .449 1 1zm-12.117 18.125c.066 1.054.94 1.875 1.996 1.875h12.242c1.056 0 1.93-.821 1.996-1.875l.883-14.125h-18zm4.581-8.246c-.389-.389-.389-1.025 0-1.414s1.025-.389 1.414 0l2.122 2.121 2.121-2.121c.389-.389 1.025-.389 1.414 0s.389 1.025 0 1.414l-2.121 2.121 2.121 2.121c.389.389.389 1.025 0 1.414s-1.025.389-1.414 0l-2.121-2.121-2.121 2.122c-.389.389-1.025.389-1.414 0s-.389-1.025 0-1.414l2.121-2.122z"/>
</svg>