<svg width="24" height="18" viewBox="0 0 24 18" fill="none" xmlns="http://www.w3.org/2000/svg">
<path d="M18 0H6C2.686 0 0 2.687 0 6V14C0 16.209 1.791 18 4 18C5.477 18 6.752 17.19 7.445 16H16.555C17.248 17.19 18.523 18 20 18C22.209 18 24 16.209 24 14V6C24 2.687 21.314 0 18 0ZM10 9H8V11C8 11.552 7.552 12 7 12C6.448 12 6 11.552 6 11V9H4C3.448 9 3 8.552 3 8C3 7.448 3.448 7 4 7H6V5C6 4.448 6.448 4 7 4C7.552 4 8 4.448 8 5V7H10C10.552 7 11 7.448 11 8C11 8.552 10.552 9 10 9ZM15.5 11C14.672 11 14 10.328 14 9.5C14 8.672 14.672 8 15.5 8C16.328 8 17 8.672 17 9.5C17 10.328 16.328 11 15.5 11ZM19.5 7C18.672 7 18 6.328 18 5.5C18 4.672 18.672 4 19.5 4C20.328 4 21 4.672 21 5.5C21 6.328 20.328 7 19.5 7Z" fill="#5F6368"/>
</svg>
