<?xml version="1.0" standalone="no"?>
<!DOCTYPE svg PUBLIC "-//W3C//DTD SVG 20010904//EN"
 "http://www.w3.org/TR/2001/REC-SVG-20010904/DTD/svg10.dtd">
<svg version="1.0" xmlns="http://www.w3.org/2000/svg"
 width="600.000000pt" height="600.000000pt" viewBox="0 0 600.000000 600.000000"
 preserveAspectRatio="xMidYMid meet">
<metadata>
Created by potrace 1.11, written by Peter Selinger 2001-2013
</metadata>
<g transform="translate(0.000000,600.000000) scale(0.100000,-0.100000)"
fill="#000000" stroke="none">
<path d="M1497 5493 c-168 -276 -317 -527 -317 -534 0 -5 -4 -9 -9 -9 -5 0
-11 -6 -13 -13 -2 -7 -127 -219 -278 -470 -151 -251 -285 -475 -297 -496 -13
-22 -47 -79 -78 -128 -30 -48 -60 -100 -66 -115 -6 -16 -15 -28 -20 -28 -5 0
-9 -4 -9 -9 0 -5 -91 -159 -201 -342 -111 -184 -202 -341 -201 -349 0 -12 59
-113 173 -300 67 -110 289 -483 289 -485 0 -2 14 -24 30 -48 17 -25 30 -49 30
-53 0 -5 14 -27 30 -48 17 -22 30 -44 30 -49 0 -6 6 -18 14 -26 7 -9 25 -36
39 -61 13 -25 71 -121 127 -215 57 -93 112 -186 124 -206 12 -19 84 -140 161
-268 161 -268 165 -274 193 -321 11 -19 56 -94 100 -167 44 -72 81 -135 83
-140 2 -4 19 -32 37 -60 l34 -53 1499 0 1499 0 23 37 c13 21 35 57 48 80 13
24 74 125 134 225 61 101 115 191 120 200 6 10 127 212 270 450 143 238 265
441 270 450 6 10 80 134 165 275 85 142 157 262 159 267 2 6 8 15 13 21 5 5
38 60 73 120 36 61 69 117 75 125 5 8 37 62 72 120 35 58 66 110 70 116 9 14
-1 33 -231 414 -161 267 -419 694 -426 708 -5 10 -59 100 -120 200 -60 100
-121 201 -135 225 -14 24 -121 203 -238 398 -118 194 -218 361 -222 369 -5 8
-35 57 -66 108 l-56 92 -1498 0 c-825 0 -1501 -3 -1503 -7z"/>
</g>
</svg>
