<svg xmlns="http://www.w3.org/2000/svg" width="24" height="24" fill="none" viewBox="0 0 24 24">
    <path fill="#000" d="M12.002 8a8 8 0 1 0 0 16 8 8 0 0 0 0-16zm3.546 7.618l-1.637 1.287.685 2.147a.537.537 0 0 1-.838.588l-1.757-1.355-1.767 1.356a.537.537 0 0 1-.837-.587l.686-2.148-1.628-1.288a.537.537 0 0 1 .332-.956h2.023l.677-2.043a.534.534 0 0 1 .508-.367h.001c.23 0 .434.147.508.365l.686 2.045h2.026a.536.536 0 0 1 .332.956zM22.69 1.682A2.992 2.992 0 0 0 19.985 0H4.01a2.99 2.99 0 0 0-2.701 1.68 2.966 2.966 0 0 0 .328 3.156l3.232 4.141a10.064 10.064 0 0 1 3.344-2.232L6.07 4h11.864l-2.143 2.745a10.066 10.066 0 0 1 3.344 2.231l3.228-4.135a2.969 2.969 0 0 0 .327-3.159z"/>
</svg>
