<svg width="22" height="24" viewBox="0 0 22 24" fill="none" xmlns="http://www.w3.org/2000/svg">
<path d="M11.0023 8C6.5843 8 3.0023 11.582 3.0023 16C3.0023 20.418 6.5843 24 11.0023 24C15.4203 24 19.0023 20.418 19.0023 16C19.0023 11.582 15.4203 8 11.0023 8V8ZM14.5483 15.618L12.9113 16.905L13.5963 19.052C13.6673 19.275 13.5853 19.519 13.3933 19.654C13.3013 19.718 13.1933 19.751 13.0853 19.751C12.9703 19.751 12.8543 19.714 12.7583 19.64L11.0013 18.285L9.2343 19.641C9.0483 19.783 8.7903 19.789 8.6003 19.655C8.4083 19.52 8.3263 19.277 8.3973 19.054L9.0833 16.906L7.4553 15.618C7.2763 15.477 7.2073 15.237 7.2813 15.022C7.3563 14.806 7.5593 14.662 7.7873 14.662H9.8103L10.4873 12.619C10.5593 12.4 10.7643 12.252 10.9953 12.252H10.9963C11.2263 12.252 11.4303 12.399 11.5043 12.617L12.1903 14.662H14.2163C14.4443 14.662 14.6473 14.807 14.7223 15.023C14.7973 15.237 14.7273 15.476 14.5483 15.618V15.618ZM21.6903 1.682C21.1813 0.645 20.1453 0 18.9853 0H3.0103C1.8533 0 0.818299 0.644 0.309299 1.68C-0.199701 2.716 -0.0737013 3.925 0.637299 4.836L3.8693 8.977C4.8143 8.023 5.9503 7.261 7.2133 6.745L5.0703 4H16.9343L14.7913 6.745C16.0553 7.261 17.1903 8.023 18.1353 8.976L21.3633 4.841C22.0743 3.93 22.2003 2.72 21.6903 1.682V1.682Z" fill="#5F6368"/>
</svg>
