<svg xmlns="http://www.w3.org/2000/svg" width="24" height="24" fill="none" viewBox="0 0 24 24">
    <g clip-path="url(#a)">
        <path fill="#000" d="M4.294 14.004A13.503 13.503 0 0 0 0 24h.003a13.503 13.503 0 0 0 9.992-4.29l6.822-7.326-5.197-5.197-7.326 6.817zM23.414.586a1.999 1.999 0 0 0-2.829 0l-4.952 4.952-3.537-3.537a2.001 2.001 0 1 0 0 2.83l7.074 7.074a2.001 2.001 0 1 0 2.83 0l-3.538-3.537 4.952-4.952a2.002 2.002 0 0 0 0-2.83z"/>
    </g>
    <defs>
        <clipPath id="a">
            <path fill="#000" d="M0 0h24v24H0z"/>
        </clipPath>
    </defs>
</svg>
