<svg enable-background="new 0 0 24 24" viewBox="0 0 24 24" xmlns="http://www.w3.org/2000/svg"><path d="m4.294 14.004c-2.766 2.574-4.322 6.196-4.294 9.996h.003c3.797.028 7.418-1.526 9.992-4.29l6.822-7.326-5.197-5.197zm19.12-13.418c-.782-.782-2.048-.782-2.829 0l-4.952 4.952-3.537-3.537c-.362-.362-.862-.586-1.415-.586-1.105 0-2.001.896-2.001 2.001s.896 2.001 2.001 2.001c.553 0 1.053-.224 1.415-.586l7.074 7.074c-.362.362-.586.862-.586 1.415 0 1.105.896 2.001 2.001 2.001s2.001-.896 2.001-2.001c0-.553-.224-1.053-.586-1.415l-3.538-3.537 4.952-4.952c.781-.782.781-2.048 0-2.83z"/></svg>